# xmcd
#
# Track frame offsets:
# 150
# 20858
# 40051
# 63904
# 79461
# 103509
# 122473
# 139921
# 156224
# 171372
# 179355
# 193990
# 208391
#
# Disc length: 3021 seconds
#
# Revision: 0
# Processed by: cddbd v1.5.2PL0 Copyright (c) Steve Scherf et al.
# Submitted via: Audion 3.0.2 (http://www.panic.com/audion/)
#
DISCID=c10bcb0d
DTITLE=Slyde - Everyone's entitled to our opinion
DYEAR=1900
DGENRE=
TTITLE0=1
TTITLE1=1
TTITLE2=1
TTITLE3=1
TTITLE4=Kiss Kiss Bang Bang
TTITLE5=1
TTITLE6=1
TTITLE7=1
TTITLE8=1
TTITLE9=1
TTITLE10=1
TTITLE11=1
TTITLE12=1
EXTD=
EXTT0=
EXTT1=
EXTT2=
EXTT3=
EXTT4=
EXTT5=
EXTT6=
EXTT7=
EXTT8=
EXTT9=
EXTT10=
EXTT11=
EXTT12=
PLAYORDER=
